<?xml version="1.0" encoding="utf-8"?>
<!-- Generator: Adobe Illustrator 14.0.0, SVG Export Plug-In . SVG Version: 6.00 Build 43363)  -->
<!DOCTYPE svg PUBLIC "-//W3C//DTD SVG 1.1//EN" "http://www.w3.org/Graphics/SVG/1.1/DTD/svg11.dtd">
<svg version="1.1" id="Layer_1" xmlns="http://www.w3.org/2000/svg" xmlns:xlink="http://www.w3.org/1999/xlink" x="0px" y="0px"
	 width="25px" height="25px" viewBox="0 0 25 25" enable-background="new 0 0 25 25" xml:space="preserve">
<g>
	<g>
		<polygon fill="#EBEBEB" points="23.146,10.142 23.146,1.95 14.951,1.95 17.412,4.409 14.133,7.687 17.408,10.962 20.686,7.683 		
			"/>
		<path fill="#EBEBEB" d="M21.555,16.674c-1.447,0-2.84-0.229-4.139-0.662c-0.404-0.122-0.857-0.031-1.18,0.282l-2.549,2.548
			c-3.28-1.67-5.97-4.345-7.638-7.634l2.548-2.563c0.326-0.303,0.417-0.757,0.291-1.16c-0.428-1.298-0.66-2.688-0.66-4.137
			c0-0.639-0.522-1.16-1.159-1.16H3.012c-0.636,0-1.158,0.521-1.158,1.16c0,10.881,8.817,19.701,19.701,19.701
			c0.637,0,1.158-0.52,1.158-1.159v-4.055C22.713,17.196,22.191,16.674,21.555,16.674L21.555,16.674z"/>
	</g>
</g>
</svg>
