<?xml version="1.0" encoding="utf-8"?>
<!-- Generator: Adobe Illustrator 14.0.0, SVG Export Plug-In . SVG Version: 6.00 Build 43363)  -->
<!DOCTYPE svg PUBLIC "-//W3C//DTD SVG 1.1//EN" "http://www.w3.org/Graphics/SVG/1.1/DTD/svg11.dtd">
<svg version="1.1" id="Layer_1" xmlns="http://www.w3.org/2000/svg" xmlns:xlink="http://www.w3.org/1999/xlink" x="0px" y="0px"
	 width="25px" height="25px" viewBox="0 0 25 25" enable-background="new 0 0 25 25" xml:space="preserve">
<path fill="none" stroke="#EBEBEB" d="M19.038,2.683H6.305c-1.486,0-2.702,1.217-2.702,2.703v14.245
	c0,1.486,1.216,2.701,2.702,2.701h12.733c1.486,0,2.702-1.215,2.702-2.701V5.386C21.74,3.9,20.524,2.683,19.038,2.683z"/>
<g>
	<g>
		<path fill="#EBEBEB" d="M18.877,6.718c-0.246-0.245-0.541-0.369-0.887-0.369H7.449c-0.346,0-0.641,0.124-0.887,0.369
			C6.316,6.965,6.193,7.26,6.193,7.605v9.537c0,0.345,0.123,0.64,0.369,0.887c0.246,0.245,0.541,0.368,0.887,0.368H17.99
			c0.346,0,0.641-0.123,0.887-0.368c0.246-0.247,0.368-0.542,0.368-0.887V7.605C19.245,7.26,19.123,6.965,18.877,6.718L18.877,6.718
			z M12.219,17.393h-4.77c-0.068,0-0.128-0.023-0.178-0.074c-0.049-0.049-0.073-0.107-0.073-0.176V8.358h5.021V17.393z
			 M18.24,17.143c0,0.068-0.023,0.127-0.073,0.176c-0.05,0.051-0.108,0.074-0.177,0.074h-4.77V8.358h5.02V17.143z M18.24,17.143"/>
	</g>
</g>
</svg>
