<?xml version="1.0" encoding="utf-8"?>
<!-- Generator: Adobe Illustrator 14.0.0, SVG Export Plug-In . SVG Version: 6.00 Build 43363)  -->
<!DOCTYPE svg PUBLIC "-//W3C//DTD SVG 1.1//EN" "http://www.w3.org/Graphics/SVG/1.1/DTD/svg11.dtd">
<svg version="1.1" id="Layer_1" xmlns="http://www.w3.org/2000/svg" xmlns:xlink="http://www.w3.org/1999/xlink" x="0px" y="0px"
	 width="25px" height="25px" viewBox="0 0 25 25" enable-background="new 0 0 25 25" xml:space="preserve">
<g>
	<path fill="#FFFFFF" d="M15.132,1.966v8.192h8.193l-2.459-2.459l3.277-3.276L20.87,1.146l-3.279,3.279L15.132,1.966z
		 M20.558,17.477c-1.449,0-2.84-0.229-4.139-0.66c-0.404-0.123-0.857-0.032-1.18,0.281l-2.549,2.548
		c-3.281-1.67-5.971-4.345-7.639-7.634l2.549-2.563c0.326-0.304,0.416-0.756,0.291-1.16c-0.428-1.298-0.66-2.688-0.66-4.137
		c0-0.639-0.523-1.16-1.158-1.16H2.015c-0.637,0-1.158,0.521-1.158,1.16c0,10.88,8.818,19.701,19.701,19.701
		c0.637,0,1.158-0.52,1.158-1.16V18.64C21.716,18,21.194,17.477,20.558,17.477L20.558,17.477z M20.558,17.477"/>
</g>
</svg>
