<?xml version="1.0" encoding="utf-8"?>
<!-- Generator: Adobe Illustrator 14.0.0, SVG Export Plug-In . SVG Version: 6.00 Build 43363)  -->
<!DOCTYPE svg PUBLIC "-//W3C//DTD SVG 1.1//EN" "http://www.w3.org/Graphics/SVG/1.1/DTD/svg11.dtd">
<svg version="1.1" id="Layer_1" xmlns="http://www.w3.org/2000/svg" xmlns:xlink="http://www.w3.org/1999/xlink" x="0px" y="0px"
	 width="25px" height="25px" viewBox="0 0 25 25" enable-background="new 0 0 25 25" xml:space="preserve">
<path fill="#EBEBEB" d="M19.038,2.683H6.305c-1.486,0-2.702,1.217-2.702,2.703v14.245c0,1.486,1.216,2.701,2.702,2.701h12.733
	c1.486,0,2.702-1.215,2.702-2.701V5.386C21.74,3.9,20.524,2.683,19.038,2.683z M13.859,18.042h-2.225v-2.225h2.225V18.042z
	 M16.46,11.044c-0.277,0.438-0.87,1.034-1.777,1.789c-0.47,0.391-0.761,0.705-0.874,0.942c-0.114,0.237-0.166,0.662-0.155,1.274
	h-2.019c-0.005-0.29-0.008-0.467-0.008-0.53c0-0.654,0.108-1.192,0.325-1.615c0.216-0.422,0.649-0.897,1.298-1.425
	c0.648-0.527,1.037-0.873,1.164-1.037c0.195-0.259,0.293-0.543,0.293-0.854c0-0.433-0.174-0.804-0.52-1.112
	s-0.811-0.463-1.397-0.463c-0.564,0-1.037,0.16-1.417,0.482s-0.641,0.813-0.784,1.473L8.548,9.714
	c0.058-0.944,0.46-1.746,1.207-2.406c0.747-0.659,1.727-0.989,2.941-0.989c1.277,0,2.292,0.334,3.047,1.001
	c0.755,0.668,1.132,1.445,1.132,2.331C16.875,10.142,16.736,10.606,16.46,11.044z"/>
</svg>
