<?xml version="1.0" encoding="utf-8"?>
<!-- Generator: Adobe Illustrator 14.0.0, SVG Export Plug-In . SVG Version: 6.00 Build 43363)  -->
<!DOCTYPE svg PUBLIC "-//W3C//DTD SVG 1.1//EN" "http://www.w3.org/Graphics/SVG/1.1/DTD/svg11.dtd">
<svg version="1.1" id="Layer_1" xmlns="http://www.w3.org/2000/svg" xmlns:xlink="http://www.w3.org/1999/xlink" x="0px" y="0px"
	 width="264px" height="67px" viewBox="0 0 264 67" enable-background="new 0 0 264 67" xml:space="preserve">
<g>
	<polygon fill="#0774B5" points="6.651,40.137 20.901,59.307 47.977,7.751 	"/>
	<polygon opacity="0.7" fill="#2781BF" points="47.977,7.751 10.795,28.479 17.531,44.801 	"/>
	<polygon opacity="0.7" fill="#5CBEE8" points="46.48,7.003 13.127,16.302 21.159,32.883 	"/>
	<g>
		<path fill="#0774B5" d="M42.711,48.5l2.088-0.301l8.894-25.417h6.004L68.53,48.2l2.088,0.301v3.514h-9.958V48.5l2.026-0.361
			l-1.283-4.015h-9.479l-1.283,4.015l2.027,0.361v3.514h-9.958V48.5z M53.312,39.807h6.706l-3.293-10.3h-0.119L53.312,39.807z"/>
		<path fill="#0774B5" d="M72.545,52.014V48.5l3.111-0.602V26.918l-3.111-0.602v-3.534h3.111h5.863h3.13v3.534l-3.13,0.602v20.6
			h8.251l0.28-3.674h4.477v8.17H72.545z"/>
		<path fill="#0774B5" d="M120.024,49.049c-1.425,1.14-2.619,1.362-4.446,2.172c-1.826,0.811-3.871,1.215-6.132,1.215
			c-3.923,0-7.135-1.359-9.637-4.076c-2.503-2.718-3.754-6.204-3.754-10.461v-0.982c0-4.244,1.246-7.729,3.734-10.46
			c2.489-2.73,5.708-4.097,9.658-4.097c2.261,0,4.302,0.413,6.124,1.236c1.818,0.824,3.325,1.911,4.516,3.263v5.782h-4.356
			l-0.602-3.895c-0.576-0.576-1.302-1.031-2.179-1.365c-0.876-0.335-1.912-0.501-3.103-0.501c-2.543,0-4.501,0.922-5.872,2.769
			c-1.373,1.847-2.059,4.257-2.059,7.228v1.023c0,2.973,0.684,5.389,2.048,7.249c1.366,1.86,3.293,2.79,5.783,2.79
			c1.15,0,3.334-0.074,4.292-0.408c0.957-0.335,3.134-0.951,3.895-1.424L120.024,49.049z"/>
		<path fill="#0774B5" d="M149.499,37.62c0,4.283-1.225,7.822-3.675,10.619c-2.449,2.798-5.653,4.197-9.616,4.197
			c-3.949,0-7.137-1.399-9.566-4.197c-2.428-2.797-3.644-6.336-3.644-10.619v-0.441c0-4.256,1.211-7.79,3.634-10.602
			c2.422-2.811,5.607-4.217,9.557-4.217c3.961,0,7.17,1.406,9.627,4.217c2.455,2.812,3.684,6.345,3.684,10.602V37.62z
			 M143.656,37.137c0-3.024-0.629-5.481-1.888-7.368c-1.258-1.888-3.118-2.831-5.58-2.831c-2.464,0-4.299,0.937-5.512,2.811
			c-1.212,1.873-1.817,4.337-1.817,7.388v0.482c0,3.076,0.612,5.559,1.838,7.438c1.223,1.881,3.062,2.822,5.511,2.822
			c2.476,0,4.338-0.941,5.582-2.822c1.244-1.879,1.866-4.361,1.866-7.438V37.137z"/>
		<path fill="#75C4EA" d="M174.051,32.119h-4.396l-0.764-4.017c-0.509-0.32-1.252-0.602-2.229-0.842
			c-0.977-0.242-2.013-0.361-3.111-0.361c-1.605,0-2.848,0.337-3.724,1.013c-0.878,0.676-1.315,1.55-1.315,2.62
			c0,0.992,0.457,1.803,1.375,2.44c0.916,0.636,2.5,1.308,4.748,2.017c3.226,0.896,5.673,2.082,7.339,3.555
			c1.665,1.471,2.499,3.405,2.499,5.803c0,2.502-0.991,4.476-2.971,5.921c-1.982,1.446-4.592,2.169-7.83,2.169
			c-2.316,0-4.408-0.368-6.274-1.104c-1.867-0.736-3.423-1.753-4.668-3.052v-6.104h4.537l0.622,4.156
			c0.59,0.48,1.389,0.879,2.4,1.193c1.01,0.315,2.138,0.473,3.383,0.473c1.605,0,2.826-0.327,3.664-0.983
			c0.836-0.655,1.254-1.532,1.254-2.631c0-1.124-0.398-2.026-1.193-2.71c-0.797-0.684-2.193-1.325-4.188-1.928
			c-3.466-1.002-6.09-2.193-7.869-3.572c-1.781-1.379-2.671-3.266-2.671-5.663c0-2.368,1.005-4.305,3.013-5.812
			c2.006-1.505,4.53-2.279,7.568-2.317c2.247,0,4.296,0.339,6.143,1.023c1.848,0.683,3.4,1.593,4.657,2.73V32.119z"/>
		<path fill="#75C4EA" d="M190.694,22.782c3.348,0,5.986,0.859,7.921,2.579c1.935,1.721,2.901,3.973,2.901,6.758
			c0,2.797-0.967,5.044-2.901,6.744c-1.935,1.7-4.573,2.551-7.921,2.551h-4.938v6.485l3.133,0.602v3.514h-12.107V48.5l3.113-0.602
			V26.918l-3.113-0.602v-3.534h3.113H190.694z M185.757,36.897h4.938c1.635,0,2.869-0.445,3.705-1.336
			c0.836-0.889,1.254-2.024,1.254-3.404c0-1.405-0.418-2.565-1.254-3.483c-0.836-0.916-2.07-1.374-3.705-1.374h-4.938V36.897z"/>
		<path fill="#75C4EA" d="M230.105,37.62c0,4.283-1.224,7.822-3.674,10.619c-2.449,2.798-5.654,4.197-9.616,4.197
			c-3.949,0-7.137-1.399-9.566-4.197c-2.429-2.797-3.645-6.336-3.645-10.619v-0.441c0-4.256,1.213-7.79,3.635-10.602
			c2.422-2.811,5.607-4.217,9.556-4.217c3.962,0,7.171,1.406,9.628,4.217c2.455,2.812,3.683,6.345,3.683,10.602V37.62z
			 M224.265,37.137c0-3.024-0.631-5.481-1.889-7.368c-1.258-1.888-3.117-2.831-5.581-2.831c-2.462,0-4.299,0.937-5.512,2.811
			c-1.21,1.873-1.815,4.337-1.815,7.388v0.482c0,3.076,0.613,5.559,1.836,7.438c1.225,1.881,3.063,2.822,5.512,2.822
			c2.475,0,4.337-0.941,5.582-2.822c1.244-1.879,1.867-4.361,1.867-7.438V37.137z"/>
		<path fill="#75C4EA" d="M257.651,22.782v7.791h-4.496l-0.242-3.272h-5.381v20.599l3.133,0.602v3.514h-12.127V48.5l3.133-0.602
			V27.3h-5.361l-0.241,3.272h-4.478v-7.791H257.651z"/>
	</g>
</g>
</svg>
